<svg width="25" height="24" viewBox="0 0 25 24" fill="none" xmlns="http://www.w3.org/2000/svg">
<mask id="path-1-outside-1_660_1906" maskUnits="userSpaceOnUse" x="3.46484" y="3.03548" width="18" height="18" fill="black">
<rect fill="white" x="3.46484" y="3.03548" width="18" height="18"/>
<path d="M12.1948 4.16089L11.9413 4.41439C11.7735 4.5822 11.7735 4.85356 11.9413 5.02137L18.3146 11.391H4.8933C4.65765 11.391 4.46484 11.5838 4.46484 11.8195V12.1765C4.46484 12.4122 4.65765 12.605 4.8933 12.605H18.3146L11.9413 18.9782C11.7735 19.146 11.7735 19.4173 11.9413 19.5852L12.1948 19.8387C12.3626 20.0065 12.634 20.0065 12.8018 19.8387L20.339 12.305C20.5068 12.1372 20.5068 11.8659 20.339 11.6981L12.8018 4.16446C12.6304 3.99308 12.3626 3.99308 12.1948 4.16089Z"/>
</mask>
<path d="M12.1948 4.16089L11.9413 4.41439C11.7735 4.5822 11.7735 4.85356 11.9413 5.02137L18.3146 11.391H4.8933C4.65765 11.391 4.46484 11.5838 4.46484 11.8195V12.1765C4.46484 12.4122 4.65765 12.605 4.8933 12.605H18.3146L11.9413 18.9782C11.7735 19.146 11.7735 19.4173 11.9413 19.5852L12.1948 19.8387C12.3626 20.0065 12.634 20.0065 12.8018 19.8387L20.339 12.305C20.5068 12.1372 20.5068 11.8659 20.339 11.6981L12.8018 4.16446C12.6304 3.99308 12.3626 3.99308 12.1948 4.16089Z" fill="white"/>
<path d="M12.1948 4.16089L11.8413 3.80734V3.80734L12.1948 4.16089ZM11.9413 4.41439L12.2949 4.76795V4.76795L11.9413 4.41439ZM11.9413 5.02137L11.5878 5.37492L11.5879 5.37502L11.9413 5.02137ZM18.3146 11.391V11.891H19.5221L18.668 11.0374L18.3146 11.391ZM18.3146 12.605L18.6681 12.9585L19.5217 12.105H18.3146V12.605ZM11.9413 18.9782L12.2949 19.3317L11.9413 18.9782ZM12.8018 19.8387L12.4483 19.485L12.4482 19.4851L12.8018 19.8387ZM20.339 12.305L20.6925 12.6587L20.6925 12.6586L20.339 12.305ZM20.339 11.6981L20.6925 11.3445L20.6925 11.3444L20.339 11.6981ZM12.8018 4.16446L12.4482 4.51802L12.4483 4.5181L12.8018 4.16446ZM11.8413 3.80734L11.5878 4.06084L12.2949 4.76795L12.5484 4.51444L11.8413 3.80734ZM11.5878 4.06084C11.2247 4.42391 11.2247 5.01185 11.5878 5.37492L12.2949 4.66781C12.3223 4.69526 12.3223 4.74049 12.2949 4.76795L11.5878 4.06084ZM11.5879 5.37502L17.9611 11.7447L18.668 11.0374L12.2948 4.66771L11.5879 5.37502ZM18.3146 10.891H4.8933V11.891H18.3146V10.891ZM4.8933 10.891C4.3815 10.891 3.96484 11.3077 3.96484 11.8195H4.96484C4.96484 11.86 4.93379 11.891 4.8933 11.891V10.891ZM3.96484 11.8195V12.1765H4.96484V11.8195H3.96484ZM3.96484 12.1765C3.96484 12.6883 4.3815 13.105 4.8933 13.105V12.105C4.93379 12.105 4.96484 12.136 4.96484 12.1765H3.96484ZM4.8933 13.105H18.3146V12.105H4.8933V13.105ZM17.961 12.2514L11.5878 18.6246L12.2949 19.3317L18.6681 12.9585L17.961 12.2514ZM11.5878 18.6246C11.2247 18.9877 11.2247 19.5756 11.5878 19.9387L12.2949 19.2316C12.3223 19.2591 12.3223 19.3043 12.2949 19.3317L11.5878 18.6246ZM11.5878 19.9387L11.8413 20.1922L12.5484 19.4851L12.2949 19.2316L11.5878 19.9387ZM11.8413 20.1922C12.2043 20.5553 12.7923 20.5553 13.1554 20.1922L12.4482 19.4851C12.4757 19.4577 12.5209 19.4577 12.5484 19.4851L11.8413 20.1922ZM13.1553 20.1923L20.6925 12.6587L19.9855 11.9514L12.4483 19.485L13.1553 20.1923ZM20.6925 12.6586C21.0556 12.2955 21.0556 11.7076 20.6925 11.3445L19.9854 12.0516C19.958 12.0242 19.958 11.9789 19.9854 11.9515L20.6925 12.6586ZM20.6925 11.3444L13.1553 3.81083L12.4483 4.5181L19.9855 12.0517L20.6925 11.3444ZM13.1554 3.81091C12.7914 3.44699 12.2071 3.44155 11.8413 3.80734L12.5484 4.51445C12.536 4.52684 12.516 4.53556 12.4949 4.53548C12.4737 4.53539 12.4568 4.52654 12.4482 4.51802L13.1554 3.81091Z" fill="white" mask="url(#path-1-outside-1_660_1906)"/>
</svg>
