<svg width="31" height="31" viewBox="0 0 31 31" fill="none" xmlns="http://www.w3.org/2000/svg">
<path d="M30.2698 15.1349C30.2698 23.4937 23.4937 30.2698 15.1349 30.2698C6.77612 30.2698 0 23.4937 0 15.1349C0 6.77612 6.77612 0 15.1349 0C23.4937 0 30.2698 6.77612 30.2698 15.1349Z" fill="#FBA497"/>
<path d="M4.93575 15.193L7.22656 14.5792L6.58619 15.8917C5.48221 15.64 5.21415 15.4828 4.93575 15.193Z" fill="black"/>
<path fill-rule="evenodd" clip-rule="evenodd" d="M7.57812 14.2889L4.57688 15.0931L4.79879 15.3241C4.95168 15.4832 5.10778 15.6107 5.37376 15.7293C5.63137 15.8442 5.9895 15.9497 6.5436 16.076L6.68988 16.1094L7.57812 14.2889ZM6.87391 14.8694L6.48168 15.6732C6.01846 15.5636 5.72953 15.4737 5.52791 15.3838C5.45304 15.3504 5.39003 15.3169 5.33436 15.2819L6.87391 14.8694Z" fill="black"/>
<path d="M4.6002 16.3492C3.25655 15.2236 2.77446 14.6361 3.09257 13.7771C4.84501 14.1393 5.92276 14.2243 8.21439 13.9175L8.2166 13.9335C8.30213 14.552 8.35077 14.9037 9.67144 19.3553L10.806 18.4065C11.3695 19.0032 12.0579 19.3114 13.2305 19.8649C12.1121 19.8813 11.6973 20.2095 11.0282 20.9015C10.9583 21.5114 11.1158 21.8413 12.1688 22.3815L12.6555 21.6063C14.0153 22.2669 15.066 22.5184 17.1398 22.8848C15.6416 23.3248 14.8164 23.6299 13.3623 24.2442C9.95203 22.0446 7.48029 20.7376 7.38715 18.9754C6.82695 17.8695 6.71655 17.31 7.03694 16.4651C6.03564 16.8632 5.52233 16.6575 4.6002 16.3492Z" fill="white"/>
<path fill-rule="evenodd" clip-rule="evenodd" d="M2.97261 13.5591L2.91614 13.7116C2.82851 13.9483 2.79262 14.1759 2.81794 14.4042C2.84322 14.6322 2.92817 14.8483 3.06413 15.0642C3.33094 15.4879 3.81035 15.9337 4.4797 16.4945L4.50719 16.5175L4.5412 16.5289C4.58207 16.5425 4.62237 16.5561 4.66216 16.5695C5.06262 16.7041 5.41105 16.8213 5.76937 16.8604C6.07532 16.8937 6.38426 16.8705 6.74341 16.767C6.66806 17.0659 6.65037 17.3484 6.69572 17.6507C6.75671 18.0571 6.93001 18.4862 7.20175 19.0262C7.27031 19.9795 7.97041 20.7817 9.01557 21.5953C9.80078 22.2066 10.8145 22.8487 11.9728 23.5824C12.3851 23.8436 12.8156 24.1163 13.2607 24.4034L13.3448 24.4576L13.4369 24.4187C14.8855 23.8068 15.7039 23.5042 17.1941 23.0665L17.1737 22.6987C15.1044 22.3331 14.0747 22.0852 12.7391 21.4363L12.5865 21.3622L12.1027 22.1327C11.6792 21.9038 11.4522 21.7252 11.3321 21.5576C11.2185 21.3992 11.1889 21.2341 11.2107 20.9863C11.5227 20.6662 11.7656 20.4458 12.0493 20.2978C12.3422 20.1451 12.6939 20.0622 13.2343 20.0543L13.3123 19.6941C13.264 19.6713 13.2166 19.6489 13.17 19.627C12.0748 19.1105 11.4563 18.8188 10.9446 18.2768L10.8223 18.1473L9.77198 19.0257C8.53509 14.8487 8.48679 14.4994 8.40596 13.9149L8.40499 13.9079L8.37697 13.7053L8.19028 13.7303C5.92001 14.0342 4.86369 13.95 3.13185 13.592L2.97261 13.5591ZM3.22285 13.9968C4.8525 14.3246 5.93885 14.4008 8.05429 14.1297C8.13827 14.6956 8.29154 15.3661 9.49106 19.4094L9.57294 19.6854L10.7951 18.6633C11.2477 19.0976 11.7844 19.3857 12.5255 19.7405C12.2812 19.7874 12.07 19.8603 11.8744 19.9623C11.5175 20.1484 11.228 20.4239 10.8931 20.7702L10.8485 20.8164L10.8412 20.8802C10.8038 21.2066 10.8231 21.4972 11.0246 21.7782C11.2152 22.0439 11.5539 22.2785 12.0834 22.5501L12.2377 22.6292L12.727 21.85C13.8594 22.3836 14.8099 22.6426 16.3356 22.9308C15.2909 23.2573 14.5282 23.5485 13.3818 24.0313C12.9576 23.7582 12.5495 23.4997 12.1599 23.2529C11.0081 22.5233 10.0176 21.8958 9.248 21.2967C8.19625 20.478 7.61887 19.7567 7.57706 18.9656L7.57495 18.9257L7.55691 18.8901C7.27858 18.3407 7.12276 17.9468 7.0699 17.5946C7.01824 17.2502 7.06319 16.9323 7.21483 16.5324L7.36709 16.1309L6.96803 16.2896C6.49088 16.4793 6.14334 16.5205 5.81037 16.4842C5.49498 16.4499 5.18619 16.3462 4.77424 16.2079C4.74833 16.1992 4.72202 16.1904 4.69527 16.1814C4.0366 15.6284 3.61178 15.2238 3.3843 14.8626C3.27154 14.6835 3.21163 14.5214 3.19401 14.3625C3.18125 14.2474 3.1899 14.1275 3.22285 13.9968Z" fill="white"/>
<path d="M11.3496 20.739C11.8213 20.2646 12.546 19.9927 15.0825 19.4908L16.9519 20.0811C17.3773 21.6708 18.3532 22.6654 20.0526 24.4337C15.6467 22.3509 12.6737 20.6618 11.734 22.1737C11.0382 21.4576 10.8496 21.1136 11.3496 20.739Z" fill="black"/>
<path fill-rule="evenodd" clip-rule="evenodd" d="M15.0778 19.6858L16.8031 20.2306C17.1882 21.5754 17.971 22.5157 19.2072 23.8184C19.0225 23.7298 18.8404 23.6423 18.6611 23.5561C17.1028 22.8072 15.7539 22.159 14.662 21.7771C13.95 21.5281 13.3248 21.3837 12.8082 21.4071C12.3642 21.4272 11.9924 21.5725 11.7221 21.8806C11.6201 21.771 11.5347 21.6731 11.4657 21.5841C11.3634 21.4524 11.3055 21.3509 11.2796 21.2703C11.2556 21.1957 11.2599 21.1434 11.2805 21.0959C11.304 21.042 11.3575 20.9741 11.4691 20.8905L11.4801 20.8822L11.4898 20.8725C11.6991 20.662 11.9697 20.4882 12.5089 20.3043C13.0462 20.1211 13.8372 19.9321 15.0778 19.6858ZM11.2312 20.596C11.4921 20.3368 11.8187 20.1399 12.3868 19.9462C12.9571 19.7517 13.7834 19.5562 15.0519 19.3053L15.0994 19.2959L17.1139 19.932L17.1408 20.0323C17.546 21.5465 18.463 22.5005 20.1312 24.2361C20.1524 24.2581 20.1737 24.2803 20.1951 24.3026L19.9779 24.6048C19.4575 24.3587 18.9584 24.1189 18.4811 23.8896C16.9285 23.1435 15.6072 22.5085 14.5371 22.1343C13.8377 21.8897 13.2681 21.7651 12.8253 21.7851C12.3941 21.8046 12.0961 21.9593 11.9008 22.2736L11.773 22.4791L11.6044 22.3056C11.4291 22.1251 11.281 21.9633 11.1667 21.8161C11.0535 21.6702 10.9651 21.528 10.9194 21.3863C10.8718 21.2385 10.8706 21.0899 10.9335 20.9451C10.9919 20.8106 11.0981 20.6975 11.2312 20.596Z" fill="black"/>
<path d="M24.7943 11.9406L24.8863 10.1916C25.0091 9.91539 25.2177 9.23417 25.0704 8.71866C24.8863 8.07427 24.0578 7.33782 23.8737 7.1537C23.7264 7.00641 23.26 6.66274 23.0452 6.50931C23.0759 6.07971 23.0452 5.16529 22.677 4.94435C22.2167 4.66818 20.4676 4.8523 19.9153 5.12847C19.4734 5.3494 18.6879 6.01833 18.3503 6.32518C18.1049 6.47861 17.485 6.80388 16.9695 6.87752C16.3251 6.96958 15.3125 6.69341 14.6681 6.96958C14.4153 7.07791 13.1194 7.95792 11.5855 9.02577C9.99109 10.1357 8.1396 11.4487 6.93536 12.3088C6.04549 12.585 4.10003 13.1005 3.43723 12.9532C2.60872 12.7691 2.14844 13.1373 2.14844 13.4135C2.14844 13.6345 2.45529 14.4261 2.60872 14.7944C2.97694 15.1012 3.78704 15.8254 4.08162 16.2673C4.3762 16.7091 4.63396 16.9423 4.72601 17.0037C5.03287 16.8196 5.75704 16.525 6.19891 16.8196C6.64078 17.1142 7.18085 18.8448 7.39564 19.6733C7.82524 20.3177 9.18154 21.8827 11.17 22.9874C13.0271 24.0191 13.2868 24.3506 13.3919 24.3644L17.0616 23.2635L20.2835 24.3682C20.9586 24.7057 22.6402 25.1231 23.9658 24.092C25.2914 23.061 25.5 22.1282 25.4387 21.7906C25.3466 21.5145 25.1073 20.9069 24.8863 20.686C24.6654 20.465 23.8737 19.4279 23.5055 18.9369C23.26 17.6174 22.7875 14.5918 22.8611 13.0453C22.9347 11.4987 23.4441 10.8053 23.6896 10.6518L24.7943 11.9406Z" fill="black"/>
<path fill-rule="evenodd" clip-rule="evenodd" d="M22.1366 4.62906C22.3773 4.64657 22.6121 4.68844 22.7682 4.7821C22.9076 4.86577 22.9993 5.00441 23.0613 5.14565C23.1242 5.2891 23.165 5.45463 23.1913 5.61851C23.2364 5.89842 23.2428 6.19528 23.2337 6.41628C23.3368 6.49097 23.4675 6.58733 23.5934 6.68338C23.7534 6.80544 23.9172 6.93576 24.0014 7.0199C24.0193 7.03786 24.0456 7.06304 24.0783 7.09442C24.1982 7.20949 24.405 7.40789 24.608 7.63857C24.8636 7.9291 25.1418 8.30116 25.2462 8.66666C25.3313 8.96432 25.3111 9.29641 25.2596 9.57878C25.2113 9.84376 25.1322 10.0819 25.0673 10.2355L24.9522 12.4227L23.6651 10.9211C23.5826 11.0157 23.4787 11.1699 23.3784 11.4013C23.2216 11.763 23.0799 12.3 23.0439 13.0543C22.9723 14.5589 23.4292 17.5149 23.6773 18.8588C23.8615 19.1039 24.1363 19.4655 24.3942 19.7963C24.669 20.1487 24.9138 20.452 25.014 20.5522C25.1507 20.6888 25.2775 20.9242 25.3764 21.1382C25.4788 21.3595 25.5641 21.5871 25.612 21.7308L25.6163 21.7435L25.6187 21.7568C25.6594 21.9805 25.6061 22.3415 25.3841 22.7685C25.1594 23.2007 24.7565 23.7119 24.0758 24.2414C23.3703 24.7901 22.5722 24.9509 21.8696 24.9324C21.177 24.9142 20.5664 24.7218 20.2043 24.5431L17.0516 23.4622L13.4012 24.5573L13.361 24.552C13.3082 24.545 13.2653 24.5216 13.2393 24.506C13.2106 24.4889 13.1785 24.4663 13.1447 24.4419C13.1286 24.4303 13.1111 24.4175 13.0918 24.4035C13.0269 24.3562 12.9423 24.2945 12.8245 24.2134C12.5201 24.0038 11.9962 23.6662 11.0719 23.1527C9.05382 22.0315 7.67615 20.4443 7.23211 19.7783L7.2144 19.7517L7.20639 19.7208C7.10019 19.3112 6.91343 18.6782 6.69939 18.1132C6.59225 17.8305 6.47992 17.5691 6.36925 17.3626C6.2536 17.1469 6.15554 17.0221 6.08785 16.977C5.93067 16.8722 5.7023 16.8611 5.44598 16.917C5.19518 16.9716 4.95657 17.0823 4.81722 17.1659L4.71456 17.2275L4.61494 17.1611C4.49509 17.0812 4.22091 16.8264 3.91808 16.3722C3.78329 16.17 3.52061 15.8909 3.23547 15.6165C2.95379 15.3454 2.66263 15.0906 2.48148 14.9397L2.44581 14.91L2.42796 14.8671C2.35029 14.6807 2.23388 14.3874 2.13653 14.1117C2.08791 13.974 2.04325 13.8385 2.01051 13.7218C1.97973 13.6121 1.95312 13.498 1.95312 13.4135C1.95312 13.1729 2.1419 12.9597 2.39503 12.8398C2.6588 12.7148 3.02524 12.6692 3.47214 12.7685C3.60548 12.7982 3.82492 12.7971 4.11142 12.7655C4.39229 12.7345 4.71868 12.6766 5.05559 12.6048C5.71457 12.4644 6.40186 12.2734 6.84415 12.1371C8.04927 11.2764 9.88697 9.97343 11.4713 8.87048C12.2385 8.33634 12.947 7.84864 13.4957 7.4807C13.7699 7.2968 14.0052 7.1422 14.1883 7.02646C14.3659 6.91419 14.5077 6.82985 14.5874 6.79567C14.9553 6.63801 15.4116 6.64273 15.8232 6.66559C15.9181 6.67086 16.0106 6.67705 16.1002 6.68304C16.4201 6.70443 16.7041 6.72342 16.9366 6.69021C17.4032 6.62355 17.9823 6.32579 18.2298 6.17347C18.4024 6.01716 18.6797 5.77677 18.97 5.5464C19.2638 5.31317 19.5842 5.07939 19.8246 4.95923C19.9848 4.87913 20.2167 4.8119 20.4704 4.75911C20.7276 4.70559 21.0202 4.66428 21.3091 4.6407C21.5976 4.61715 21.8868 4.6109 22.1366 4.62906ZM20.5475 5.12955C20.3035 5.18032 20.1097 5.23967 19.9938 5.29766C19.7922 5.39843 19.499 5.60959 19.2052 5.84277C18.9151 6.07298 18.6376 6.31414 18.4715 6.46515L18.4589 6.47658L18.4445 6.48559C18.1925 6.64309 17.5454 6.98545 16.9901 7.06478C16.7142 7.1042 16.3753 7.08123 16.0495 7.05915C15.9657 7.05348 15.8829 7.04786 15.8022 7.04338C15.3852 7.02021 15.013 7.02494 14.7365 7.14344C14.6899 7.16342 14.5749 7.22971 14.3905 7.34629C14.2115 7.45938 13.9795 7.61183 13.7064 7.79496C13.1605 8.16107 12.4541 8.64731 11.6875 9.18101C10.0939 10.2904 8.24307 11.6029 7.0392 12.4628L7.01441 12.4805L6.98531 12.4895C6.53629 12.6289 5.82177 12.8284 5.13444 12.9748C4.7909 13.048 4.45103 13.1087 4.15291 13.1415C3.86041 13.1738 3.58812 13.1819 3.39006 13.1379C3.00846 13.0531 2.73049 13.0995 2.557 13.1817C2.37287 13.2689 2.3315 13.378 2.3315 13.4135C2.3315 13.4395 2.34325 13.5071 2.3748 13.6196C2.40439 13.725 2.44603 13.8518 2.49331 13.9857C2.58068 14.2331 2.68456 14.497 2.75961 14.6791C2.94756 14.8372 3.22664 15.0828 3.49784 15.3438C3.78345 15.6187 4.07311 15.9226 4.2329 16.1623C4.44381 16.4786 4.6303 16.6768 4.7396 16.7764C4.90539 16.6905 5.12862 16.5989 5.36543 16.5473C5.65838 16.4834 6.01303 16.4724 6.29773 16.6622C6.45097 16.7643 6.58612 16.9663 6.70272 17.1839C6.8243 17.4106 6.94326 17.6889 7.05322 17.9792C7.26794 18.546 7.45462 19.1751 7.56446 19.5944C7.99867 20.2332 9.32376 21.7487 11.2557 22.822C12.1886 23.3402 12.7231 23.6842 13.0391 23.9018C13.1617 23.9862 13.2517 24.0518 13.3167 24.0992C13.3351 24.1126 13.3515 24.1246 13.3661 24.135C13.3811 24.1459 13.3933 24.1546 13.4035 24.1616L17.0593 23.0648L20.3507 24.1933L20.362 24.199C20.6765 24.3562 21.2386 24.5373 21.8795 24.5542C22.5179 24.571 23.2234 24.425 23.8435 23.9427C24.4884 23.4411 24.8527 22.9703 25.0484 22.594C25.2402 22.2251 25.2656 21.9566 25.2483 21.8363C25.2033 21.703 25.1252 21.4965 25.033 21.297C24.934 21.0829 24.8307 20.904 24.7464 20.8197C24.6257 20.699 24.3642 20.3732 24.0958 20.029C23.8233 19.6795 23.5326 19.2965 23.348 19.0504L23.3215 19.015L23.3134 18.9715C23.0685 17.6551 22.5911 14.6082 22.666 13.0363C22.7037 12.2439 22.8535 11.6609 23.0312 11.2509C23.2061 10.8472 23.4149 10.5965 23.5832 10.4914L23.7212 10.4051L24.6241 11.4585L24.6931 10.1467L24.7073 10.1147C24.7629 9.98967 24.8411 9.76469 24.8874 9.5109C24.9341 9.25474 24.9447 8.98846 24.8824 8.77061C24.8027 8.49172 24.5746 8.17335 24.3239 7.88853C24.1335 7.67219 23.9468 7.49285 23.8249 7.37583C23.788 7.34043 23.7571 7.31074 23.7338 7.28745C23.6707 7.22431 23.5277 7.10914 23.3639 6.98419C23.2039 6.86212 23.0353 6.73904 22.9291 6.66323L22.8428 6.60159L22.8504 6.49581C22.865 6.29142 22.8648 5.97057 22.8178 5.67861C22.7943 5.53256 22.7602 5.40121 22.7148 5.29765C22.6684 5.19187 22.6182 5.13336 22.5735 5.10656C22.4995 5.06213 22.343 5.02345 22.1091 5.00644C21.8842 4.99008 21.6153 4.99534 21.3399 5.01782C21.065 5.04026 20.788 5.07951 20.5475 5.12955ZM13.4401 24.1849C13.4403 24.185 13.4399 24.1849 13.4388 24.1843C13.4395 24.1846 13.44 24.1849 13.4401 24.1849Z" fill="black"/>
<path d="M23.2948 11.2176L23.0157 10.1763L21.5401 9.85246L19.7068 11.0629L17.6744 13.5668C17.1689 14.6081 17.0718 15.252 17.2767 16.5254L18.271 16.9039L18.4742 16.5518C19.2347 16.3652 19.6586 16.4473 20.4126 16.7516C21.3359 17.5871 21.8626 18 22.8313 18.5588C23.1848 15.7025 23.279 14.0944 23.2948 11.2176Z" fill="black"/>
<path fill-rule="evenodd" clip-rule="evenodd" d="M21.4978 9.6507L19.5735 10.9213L17.509 13.4647L17.4995 13.4843C17.2421 14.0145 17.0826 14.4559 17.017 14.9335C16.9515 15.4101 16.9813 15.9102 17.0852 16.5557L17.1026 16.6635L18.3495 17.1381L18.5925 16.7173C18.9191 16.6432 19.1714 16.6261 19.4187 16.6556C19.6809 16.6869 19.9487 16.7718 20.306 16.9147C21.2205 17.7411 21.7573 18.1606 22.7321 18.7228L22.9793 18.8654L23.0144 18.5822C23.3688 15.718 23.4634 14.1025 23.4792 11.2188L23.4793 11.1933L23.164 10.0163L21.4978 9.6507ZM21.5729 10.0545L22.858 10.3366L23.1007 11.2421C23.0851 13.999 22.9967 15.5853 22.6739 18.2498C21.8713 17.7689 21.3691 17.3664 20.5348 16.6115L20.5099 16.5889L20.4787 16.5763C20.0976 16.4225 19.7843 16.3182 19.4635 16.2799C19.1395 16.2413 18.8198 16.2712 18.4244 16.3682L18.346 16.3874L18.1829 16.6699L17.4419 16.3879C17.3552 15.8144 17.337 15.3844 17.3918 14.985C17.4492 14.5673 17.5881 14.171 17.8304 13.6691L19.8306 11.2049L21.5729 10.0545Z" fill="black"/>
<path d="M18.8996 6.04403C20.3338 5.53953 21.0293 5.37503 21.9573 5.42312C20.8276 5.71517 20.4482 5.97744 20.4682 6.71496C20.0834 6.55148 19.8761 6.57603 19.5083 6.64975L19.1724 7.06217C18.8829 7.92431 18.8159 8.39937 18.837 9.2353L16.5081 8.9665C15.8983 8.36025 15.5849 8.00281 15.27 7.21498C16.4127 7.23404 17.0511 7.19473 18.1736 6.75937C18.4436 6.46626 18.6042 6.31139 18.8996 6.04403Z" fill="black"/>
<path fill-rule="evenodd" clip-rule="evenodd" d="M20.7422 5.69441C20.7138 5.71445 20.6868 5.73514 20.6611 5.75653C20.4376 5.94235 20.3257 6.17057 20.2909 6.45153C20.1864 6.42289 20.0882 6.40778 19.9889 6.40432C19.8185 6.39839 19.6551 6.42744 19.4715 6.46424L19.4049 6.4776L19.0044 6.96934L18.9935 7.00194C18.723 7.80744 18.6407 8.29178 18.6448 9.02261L16.5955 8.78608C16.0977 8.28902 15.8169 7.96847 15.5586 7.40758C16.5432 7.41333 17.1893 7.3442 18.2425 6.93574L18.2834 6.91985L18.3132 6.88753C18.5698 6.60892 18.7245 6.45869 18.9987 6.20985C19.739 5.95019 20.2732 5.78545 20.7422 5.69441ZM21.9675 5.23417C21.0013 5.1841 20.277 5.35909 18.8372 5.86555L18.8013 5.87819L18.773 5.90376C18.4854 6.16408 18.3219 6.32109 18.0649 6.59867C16.9987 7.00727 16.3883 7.0444 15.2736 7.02581L14.9892 7.02107L15.0947 7.28519C15.4234 8.1075 15.7572 8.48637 16.3752 9.10066L16.4217 9.1469L19.0321 9.44819L19.0266 9.2305C19.0063 8.42756 19.068 7.97574 19.3413 7.15488L19.6122 6.8222C19.7611 6.79368 19.8694 6.77876 19.9757 6.78246C20.0928 6.78654 20.2178 6.81392 20.3946 6.88907L20.6657 7.00425L20.6577 6.70981C20.6488 6.38047 20.7266 6.19415 20.903 6.04743C21.1003 5.88336 21.4385 5.75275 22.0051 5.60627L21.9675 5.23417Z" fill="black"/>
<path d="M23.0525 7.83465C22.8231 7.51376 22.7823 7.29575 22.794 6.86997L22.3167 6.89181L22.098 6.07554L22.1915 6.92536L22.0663 6.95891C21.9079 6.96959 21.8337 6.9458 21.7194 6.86629L21.7783 6.58538C21.7491 6.38106 21.728 6.28575 21.6723 6.18961C21.5433 6.02719 21.4537 5.99472 21.2738 6.00476C21.1545 6.04637 21.097 6.09365 21.0064 6.20896L20.9409 6.46513C20.8133 6.66765 20.7055 6.69764 20.4982 6.7163L20.2647 6.6463L19.814 6.76709L19.1953 6.56171C19.0123 6.64862 18.9618 6.71971 18.9294 6.87156C20.1238 6.79897 20.7945 6.84035 21.9926 7.08469L22.3108 7.3706C22.4544 7.61083 22.4585 7.7541 22.3513 8.02253C21.6828 8.26596 21.3941 8.46747 20.8413 8.79828L21.6847 8.43975L22.8116 8.13779L24.3804 9.78532C24.3584 9.34142 24.3392 9.09189 24.0689 8.62275C23.7514 8.24264 23.5231 8.07526 23.0525 7.83465Z" fill="black"/>
<path fill-rule="evenodd" clip-rule="evenodd" d="M19.1767 6.35823L19.1081 6.39083C19.0073 6.43867 18.9198 6.4925 18.8543 6.57142C18.7865 6.65301 18.7573 6.74315 18.7383 6.83206L18.6863 7.07551L18.9348 7.06041C20.0965 6.98981 20.7486 7.02802 21.8985 7.25988L22.1564 7.49159C22.2097 7.58508 22.2273 7.6447 22.2302 7.6966C22.2327 7.74175 22.225 7.79529 22.1981 7.87529C21.6584 8.0785 21.3591 8.26 20.9555 8.50479C20.8866 8.54653 20.8148 8.59012 20.7382 8.63596L20.9093 8.9724L21.7405 8.61906L22.7461 8.34962L24.5885 10.2846L24.5633 9.77598C24.5524 9.55581 24.5418 9.36596 24.496 9.17037C24.4494 8.97151 24.3687 8.77451 24.2268 8.52831L24.2186 8.51409L24.2081 8.5015C23.8811 8.10997 23.6359 7.92686 23.1746 7.68785C23.0859 7.55804 23.0377 7.45389 23.0102 7.34525C22.9793 7.2232 22.9714 7.08326 22.9771 6.87519L22.9827 6.67169L22.4541 6.69588L22.2747 6.02659L21.9039 6.09625L21.9424 6.44591C21.9188 6.30381 21.8909 6.20006 21.83 6.09479L21.823 6.0828L21.8144 6.07195C21.7419 5.9807 21.6644 5.90485 21.563 5.8597C21.4612 5.81434 21.358 5.81026 21.2573 5.81588L21.2306 5.81737L21.2055 5.82614C21.1327 5.85154 21.0687 5.88227 21.0075 5.92963C20.9486 5.97528 20.9002 6.03025 20.8516 6.09211L20.827 6.12345L20.7593 6.38799C20.7144 6.45425 20.6825 6.47834 20.6573 6.4912C20.6281 6.50613 20.5891 6.51597 20.5108 6.52439L20.2616 6.44968L19.8137 6.56969L19.1767 6.35823ZM20.9754 6.72033C21.0188 6.67655 21.0577 6.62502 21.0949 6.56601L21.1108 6.54085L21.1735 6.29571C21.2018 6.26178 21.2215 6.24246 21.2391 6.22884C21.2553 6.21632 21.2744 6.20497 21.3055 6.19254C21.365 6.19104 21.3915 6.19749 21.4091 6.20536C21.4286 6.21403 21.4581 6.2338 21.509 6.29601C21.5384 6.35042 21.5555 6.41232 21.5803 6.57941L21.5328 6.80544C21.3368 6.77097 21.153 6.74277 20.9754 6.72033ZM21.9277 6.76588L21.9605 6.60995L21.9783 6.77186C21.9564 6.77111 21.9405 6.76886 21.9277 6.76588ZM22.3398 7.07987L22.2816 7.09547L22.4525 7.24901L22.4672 7.27356C22.5465 7.4063 22.6 7.5328 22.608 7.6754C22.6143 7.7885 22.5912 7.8971 22.552 8.00989L22.8652 7.92599L24.126 9.25016C24.0904 9.10122 24.0284 8.94399 23.9071 8.73142C23.6146 8.38343 23.4075 8.23173 22.9603 8.00311L22.9194 7.98215L22.8926 7.9447C22.7685 7.77113 22.6882 7.61502 22.6434 7.43806C22.6138 7.32128 22.6012 7.20073 22.5979 7.06806L22.3398 7.07987Z" fill="black"/>
<path d="M19.7734 10.5538C20.0189 10.1548 21.495 9.00424 22.2315 8.63601C22.9679 8.26779 23.6162 8.48864 23.923 8.45795C24.414 8.97961 24.5924 9.13059 24.8133 9.79339C25.0342 10.4562 25.1741 12.4256 25.1127 12.8552C24.7752 12.1494 24.2297 10.4133 23.5669 9.97145C22.9041 9.52958 22.7806 9.46493 22.5351 9.5263C22.8113 9.89453 22.781 10.5825 22.8547 10.9508C22.9283 11.319 22.5965 12.6404 22.5351 13.0393C22.3203 12.4869 21.7803 11.327 21.3384 11.1061C20.8965 10.8852 20.111 10.6362 19.7734 10.5538Z" fill="white"/>
<path d="M16.9609 16.8197C17.6974 17.9244 18.9862 19.6735 19.7226 20.3179C20.4591 20.9623 21.1035 21.4225 21.6558 21.5146C22.2081 21.6066 23.9572 21.5146 24.3254 21.2384C24.9846 20.744 25.1975 19.5814 25.1975 19.1211C25.1975 18.7529 24.9918 17.8152 24.9304 17.539C24.8414 18.1622 24.8414 18.6956 24.3254 19.6757C23.5959 21.0616 22.7937 20.2099 22.9446 19.5814C23.006 19.0905 23.2834 18.3403 22.7937 17.3609C22.7201 17.2137 22.6157 18.3403 21.8399 19.1211C21.349 18.5381 20.8273 16.5988 20.0909 16.4515C19.3544 16.3042 17.6974 16.6356 16.9609 16.8197Z" fill="white"/>
<path d="M23.3984 7.89007C23.3984 7.89007 23.9775 8.32314 24.319 8.71859C24.6605 9.11405 24.8713 9.45503 24.8713 9.45503C24.9941 8.96406 25.2396 8.36878 24.5031 7.70597C23.7667 7.04317 23.7053 7.06157 23.5826 7.06157L23.3984 7.89007Z" fill="white"/>
<path d="M19.2283 6.94821C20.5527 6.96962 21.9336 6.96962 22.2097 7.15373C22.3933 7.3371 22.3938 7.33784 22.6667 7.70162L22.67 7.70604C21.9336 7.70604 21.034 8.13753 20.5177 8.46163C19.877 8.91727 19.4506 9.3448 18.9878 9.91542C18.7116 9.54719 18.5733 9.17897 18.5275 8.9028C18.3854 8.04722 18.8084 7.90931 19.2283 6.94821Z" fill="white"/>
<path fill-rule="evenodd" clip-rule="evenodd" d="M19.0979 6.75704L19.0474 6.8725C18.9466 7.10316 18.8457 7.28461 18.7518 7.44174C18.7216 7.49214 18.691 7.54196 18.6609 7.59098C18.6002 7.68966 18.5415 7.78512 18.493 7.87559C18.4168 8.01738 18.355 8.16434 18.3242 8.33867C18.2934 8.51263 18.2951 8.70384 18.3333 8.93383C18.3844 9.24119 18.5353 9.6375 18.8289 10.029L18.9744 10.223L19.1272 10.0346C19.5801 9.47615 19.9935 9.06182 20.6153 8.61901C20.8644 8.46307 21.2057 8.28124 21.5724 8.13865C21.9434 7.99434 22.3275 7.89526 22.6625 7.89526L23.0409 7.89526L22.8105 7.58814C22.5357 7.22168 22.5288 7.21266 22.3359 7.01992L22.3227 7.00671L22.3071 6.99635C22.2467 6.95607 22.1712 6.92953 22.0975 6.91005C22.0207 6.88974 21.9308 6.87329 21.8321 6.85959C21.6346 6.83219 21.3881 6.81395 21.1135 6.80101C20.6738 6.78029 20.1495 6.7727 19.6196 6.76503C19.4876 6.76312 19.3553 6.7612 19.2238 6.75908L19.0979 6.75704ZM22.0858 7.30489C22.1383 7.35731 22.1736 7.39274 22.2072 7.42975C22.237 7.46257 22.2654 7.49664 22.3032 7.5449C22.0104 7.58833 21.7123 7.67822 21.4352 7.78601C21.0411 7.9393 20.6764 8.13391 20.4096 8.30143L20.4049 8.30433L20.4005 8.30749C19.819 8.72106 19.4086 9.11335 18.995 9.60118C18.8271 9.32781 18.7393 9.069 18.7066 8.87183C18.6737 8.67403 18.6751 8.52716 18.6968 8.4046C18.7184 8.2824 18.762 8.1744 18.8263 8.05462C18.8699 7.97346 18.9187 7.8942 18.9751 7.80243C19.0064 7.75156 19.0401 7.69685 19.0765 7.63584C19.1598 7.49646 19.2504 7.33558 19.342 7.13935C19.434 7.14076 19.5259 7.14209 19.6175 7.14342C20.1468 7.15109 20.6628 7.15857 21.0957 7.17896C21.3664 7.19171 21.5996 7.20933 21.7801 7.23438C21.8704 7.24691 21.944 7.26083 22.0007 7.27584C22.0445 7.28741 22.0712 7.29786 22.0858 7.30489Z" fill="white"/>
<path d="M3.33594 13.6553C3.63052 13.3607 3.94965 13.3485 4.07239 13.3791C4.87021 13.4098 7.2736 13.9028 7.84669 14.0581C8.39903 14.2076 8.39903 14.2076 8.58314 14.2076C8.52177 14.8827 8.28856 16.2513 7.84669 16.3249C7.29436 16.417 6.46585 15.7726 5.91351 16.0488C5.47164 16.2697 5.05432 16.1408 4.90089 16.0488L3.52005 14.4838L3.33594 13.6553Z" fill="white"/>
<path d="M24.8757 20.7781C24.7836 21.2383 24.6915 22.0668 23.863 22.343C23.0345 22.6192 21.4696 23.0795 20.0887 22.343C18.7079 21.6066 17.0509 19.5813 16.1303 17.6481C15.2098 15.715 15.2098 14.2421 15.578 13.0453C15.8726 12.0879 16.2531 11.6645 16.4066 11.5724V9.08691C15.0257 9.1176 11.9511 9.73131 10.6991 11.9407C9.44712 14.15 10.1774 15.8684 10.6991 16.4514C12.2336 17.5254 15.4498 19.7102 16.0389 19.8575C16.6281 20.0048 16.9595 20.103 17.0516 20.1337C17.3891 20.7781 18.1746 22.1957 18.6165 22.7112C19.1688 23.3556 19.8132 24.0921 20.4576 24.4603C21.102 24.8285 23.22 24.9206 24.0478 24.0921C24.8757 23.2636 25.2446 22.6192 25.4287 21.9748C25.576 21.4593 25.1214 20.9622 24.8757 20.7781Z" fill="white"/>
</svg>
