<svg width="24" height="24" viewBox="0 0 24 24" fill="none" xmlns="http://www.w3.org/2000/svg">
<path d="M23.1429 3.75H0.857143C0.629848 3.75 0.411732 3.84013 0.25102 4.00053C0.0903086 4.16093 0 4.37863 0 4.60548V19.7695C0 19.9964 0.0903086 20.2141 0.25102 20.3745C0.411732 20.5349 0.629848 20.625 0.857143 20.625H23.1429C23.3702 20.625 23.5883 20.5349 23.749 20.3745C23.9097 20.2141 24 19.9964 24 19.7695V4.60548C24 4.37863 23.9097 4.16093 23.749 4.00053C23.5883 3.84013 23.3702 3.75 23.1429 3.75V3.75ZM1.71429 6.66895L6.29922 9.57759L1.71429 13.3938V6.66895ZM3.00514 5.46096H20.9949L12.0002 11.1731L3.00514 5.46096ZM22.2855 6.66895V13.394L17.7005 9.58121L22.2855 6.66895ZM1.71404 18.9141V15.6222L7.48335 10.8229C7.58973 10.7308 7.67085 10.613 7.71906 10.4807L11.5393 12.9077C11.6768 12.9952 11.8366 13.0416 11.9996 13.0416C12.1626 13.0416 12.3224 12.9952 12.4599 12.9077L16.2801 10.4807C16.3284 10.613 16.4095 10.7308 16.5159 10.8229L22.2852 15.6222V18.9141H1.71404Z" fill="white"/>
</svg>
