<svg width="25" height="24" viewBox="0 0 25 24" fill="none" xmlns="http://www.w3.org/2000/svg">
<path fill-rule="evenodd" clip-rule="evenodd" d="M21.5 7.98214C21.5 13.9864 19.0162 19.1462 16.1182 21.6429C16.1182 21.6429 14.7209 23.25 12.5002 23.25C10.7936 23.25 8.94114 21.6429 8.94114 21.6429C5.93482 18.9686 3.5 13.3661 3.5 7.98214C3.5 3.97632 8.42405 0.75 12.5 0.75C16.5759 0.75 21.5 3.97632 21.5 7.98214ZM12.5001 2.35714C9.25444 2.35714 5.1365 5.00893 5.1365 7.98214C5.1365 14.7592 9.42046 21.6429 12.5001 21.6429C15.3965 21.6429 19.8638 15.7768 19.8638 7.98214C19.8638 5.00893 15.7458 2.35714 12.5001 2.35714Z" fill="white"/>
<path fill-rule="evenodd" clip-rule="evenodd" d="M12.5 12C13.9497 12 15.125 10.8247 15.125 9.375C15.125 7.92525 13.9497 6.75 12.5 6.75C11.0503 6.75 9.875 7.92525 9.875 9.375C9.875 10.8247 11.0503 12 12.5 12ZM12.5 13.5C14.7782 13.5 16.625 11.6532 16.625 9.375C16.625 7.09683 14.7782 5.25 12.5 5.25C10.2218 5.25 8.375 7.09683 8.375 9.375C8.375 11.6532 10.2218 13.5 12.5 13.5Z" fill="white"/>
</svg>
