<svg width="25" height="24" viewBox="0 0 25 24" fill="none" xmlns="http://www.w3.org/2000/svg">
<path d="M20.2387 16.8899C19.9338 16.4658 19.5036 16.1485 19.0091 15.9832C18.5146 15.8179 17.9808 15.8127 17.4832 15.9685L16.8502 16.1678C16.6867 16.2198 16.5111 16.2185 16.3486 16.164C16.1861 16.1098 16.0448 16.0051 15.9451 15.8654L9.83269 7.3782C9.67258 7.15682 9.63362 6.86962 9.72905 6.61344L10.3261 5.01273H10.3263C10.6174 4.23174 10.4994 3.35631 10.0122 2.68072L8.82637 1.03382H8.82655C8.40457 0.447833 7.75 0.0742344 7.03221 0.00990162C6.31462 -0.0544216 5.60427 0.196878 5.08556 0.69875L2.38347 3.31217C2.01312 3.67248 1.76317 4.13917 1.66793 4.64775C1.57268 5.15633 1.6368 5.6821 1.85153 6.15272C3.27517 9.26554 7.33261 17.1755 14.2442 23.3775C14.6964 23.7803 15.2804 24.0019 15.885 24C16.2902 24 16.6893 23.9015 17.0483 23.7126L20.3884 21.9535C21.0262 21.6175 21.4875 21.0205 21.6524 20.3169C21.8174 19.6133 21.67 18.8725 21.2483 18.2863L20.2387 16.8899ZM20.0199 19.9348C19.9666 20.167 19.8138 20.3637 19.6024 20.4725L16.2623 22.2316C16.1177 22.31 15.9529 22.3423 15.7894 22.3244C15.6262 22.3064 15.4722 22.2389 15.3479 22.1311C10.3106 17.4078 6.24185 11.7426 3.37033 5.45384C3.29894 5.29902 3.27714 5.12569 3.30808 4.95799C3.33902 4.79027 3.42121 4.63619 3.5433 4.51728L6.24204 1.90462C6.39264 1.75672 6.59506 1.67408 6.80566 1.67426C6.83101 1.67295 6.85636 1.67295 6.88171 1.67426C7.11749 1.69352 7.33295 1.81618 7.47033 2.00933L8.65616 3.65623C8.81552 3.87799 8.8541 4.16481 8.75885 4.42099L8.1626 6.02678C7.8709 6.80777 7.98889 7.68339 8.47648 8.35879L14.5922 16.8479C14.8969 17.2724 15.3269 17.5897 15.8216 17.7552C16.3163 17.9204 16.8501 17.9255 17.3478 17.7694L17.9807 17.57C18.1442 17.519 18.3196 17.5209 18.4821 17.5751C18.6447 17.6293 18.7861 17.7333 18.8868 17.8724L19.8888 19.2704C20.0279 19.4617 20.076 19.7048 20.0199 19.9348L20.0199 19.9348ZM23.3717 11.8095C23.3857 12.031 23.3112 12.2492 23.1649 12.416C23.0184 12.5826 22.812 12.6841 22.591 12.6982H22.5375C22.3248 12.6985 22.1202 12.6176 21.9649 12.4717C21.8098 12.3259 21.7159 12.1262 21.7025 11.9132C21.5819 9.93179 20.8784 8.03082 19.6811 6.45069C18.4837 4.87013 16.8463 3.68136 14.9755 3.03421C14.6928 2.9353 14.484 2.6926 14.4281 2.39734C14.372 2.10229 14.4771 1.79958 14.7039 1.60323C14.9308 1.40709 15.2446 1.34707 15.5276 1.44598C17.7104 2.20084 19.6211 3.58821 21.0178 5.43236C22.4145 7.27671 23.2351 9.49505 23.375 11.8072L23.3717 11.8095ZM13.3739 5.13158C13.446 4.92142 13.5987 4.74883 13.7978 4.65162C13.997 4.55439 14.2266 4.54056 14.4359 4.6131C15.9955 5.15256 17.3606 6.14373 18.3583 7.46155C19.3562 8.77937 19.9419 10.3646 20.0414 12.0163C20.0554 12.2383 19.9808 12.4565 19.8343 12.6233C19.6876 12.7899 19.4811 12.8914 19.2599 12.9051H19.2073C18.9944 12.9056 18.7896 12.8245 18.6343 12.6785C18.4792 12.5324 18.3855 12.3325 18.3723 12.1194C18.293 10.7976 17.8245 9.52897 17.0262 8.47442C16.2278 7.41987 15.1354 6.62668 13.8874 6.19554C13.679 6.12225 13.5079 5.96929 13.4117 5.76998C13.3154 5.57047 13.3017 5.34105 13.3739 5.13163L13.3739 5.13158Z" fill="white"/>
</svg>
