<svg width="82" height="20" viewBox="0 0 82 20" fill="none" xmlns="http://www.w3.org/2000/svg">
<path d="M7.10974 19.4646L0.273438 2.61086H3.293L8.6316 16.2624H7.56871L12.9556 2.61086H15.9269L9.04226 19.4646H7.10974Z" fill="#1F1E1F"/>
<path d="M16.2415 19.4646V7.90777H18.8987V19.4646H16.2415ZM18.8987 13.0361L17.9807 12.5787C17.9807 11.118 18.3028 9.93825 18.947 9.03938C19.6073 8.12446 20.5977 7.667 21.9183 7.667C22.498 7.667 23.0214 7.77133 23.4884 7.98C23.9555 8.18866 24.3903 8.52574 24.7929 8.99122L23.0536 10.7729C22.8443 10.5482 22.6108 10.3877 22.3531 10.2914C22.0954 10.1951 21.7975 10.1469 21.4593 10.1469C20.7185 10.1469 20.1065 10.3797 19.6234 10.8451C19.1403 11.3106 18.8987 12.041 18.8987 13.0361Z" fill="#1F1E1F"/>
<path d="M30.5803 19.7054C29.5335 19.7054 28.5833 19.4406 27.7298 18.9109C26.8924 18.3812 26.224 17.6669 25.7248 16.768C25.2417 15.8531 25.0001 14.8339 25.0001 13.7103C25.0001 12.5706 25.2417 11.5514 25.7248 10.6525C26.224 9.73761 26.8924 9.0153 27.7298 8.48561C28.5833 7.93987 29.5335 7.667 30.5803 7.667C31.466 7.667 32.2471 7.85961 32.9234 8.24484C33.6159 8.61402 34.1635 9.12766 34.5661 9.78576C34.9687 10.4439 35.17 11.1902 35.17 12.0249V15.3475C35.17 16.1822 34.9687 16.9286 34.5661 17.5867C34.1796 18.2448 33.6401 18.7664 32.9476 19.1516C32.2551 19.5208 31.466 19.7054 30.5803 19.7054ZM31.0151 17.2014C31.9974 17.2014 32.7866 16.8724 33.3824 16.2143C33.9944 15.5562 34.3004 14.7135 34.3004 13.6862C34.3004 12.996 34.1635 12.3861 33.8897 11.8564C33.6159 11.3267 33.2294 10.9174 32.7302 10.6284C32.2471 10.3235 31.6754 10.171 31.0151 10.171C30.3709 10.171 29.7992 10.3235 29.3 10.6284C28.8168 10.9174 28.4303 11.3267 28.1405 11.8564C27.8667 12.3861 27.7298 12.996 27.7298 13.6862C27.7298 14.3764 27.8667 14.9864 28.1405 15.516C28.4303 16.0457 28.8168 16.4631 29.3 16.768C29.7992 17.057 30.3709 17.2014 31.0151 17.2014ZM34.1313 19.4646V16.3587L34.5903 13.5417L34.1313 10.7488V7.90777H36.7885V19.4646H34.1313ZM31.0392 6.53539C30.4434 6.53539 29.9119 6.40698 29.4449 6.15016C28.994 5.87729 28.6316 5.51613 28.3579 5.0667C28.1002 4.61726 27.9714 4.11165 27.9714 3.54986C27.9714 2.98807 28.1002 2.48245 28.3579 2.03302C28.6316 1.58358 28.994 1.23046 29.4449 0.973638C29.9119 0.700767 30.4434 0.564331 31.0392 0.564331C31.619 0.564331 32.1343 0.700767 32.5853 0.973638C33.0362 1.23046 33.3905 1.58358 33.6481 2.03302C33.9058 2.48245 34.0346 2.98807 34.0346 3.54986C34.0346 4.11165 33.9058 4.61726 33.6481 5.0667C33.3905 5.51613 33.0362 5.87729 32.5853 6.15016C32.1343 6.40698 31.619 6.53539 31.0392 6.53539ZM31.0392 4.65739C31.3291 4.65739 31.5787 4.55306 31.7881 4.34439C31.9974 4.11968 32.1021 3.85483 32.1021 3.54986C32.1021 3.22883 31.9974 2.96399 31.7881 2.75532C31.5787 2.54666 31.3291 2.44232 31.0392 2.44232C30.701 2.44232 30.4273 2.54666 30.2179 2.75532C30.0247 2.96399 29.928 3.22883 29.928 3.54986C29.928 3.85483 30.0247 4.11968 30.2179 4.34439C30.4273 4.55306 30.701 4.65739 31.0392 4.65739Z" fill="#1F1E1F"/>
<path d="M39.7375 19.4646V2.12933H42.3947V19.4646H39.7375Z" fill="#1F1E1F"/>
<path d="M52.7197 19.4646L47.816 13.5658L52.6956 7.90777H55.8601L50.2558 14.2641L50.3765 12.7472L56.1016 19.4646H52.7197ZM45.352 19.4646V2.12933H48.0092V19.4646H45.352Z" fill="#1F1E1F"/>
<path d="M61.9555 19.7054C60.9087 19.7054 59.9585 19.4406 59.105 18.9109C58.2676 18.3812 57.5992 17.6669 57.1 16.768C56.6169 15.8531 56.3753 14.8339 56.3753 13.7103C56.3753 12.5706 56.6169 11.5514 57.1 10.6525C57.5992 9.73761 58.2676 9.0153 59.105 8.48561C59.9585 7.93987 60.9087 7.667 61.9555 7.667C62.8412 7.667 63.6222 7.85961 64.2986 8.24484C64.9911 8.61402 65.5387 9.12766 65.9413 9.78576C66.3439 10.4439 66.5452 11.1902 66.5452 12.0249V15.3475C66.5452 16.1822 66.3439 16.9286 65.9413 17.5867C65.5548 18.2448 65.0153 18.7664 64.3228 19.1516C63.6303 19.5208 62.8412 19.7054 61.9555 19.7054ZM62.3903 17.2014C63.3726 17.2014 64.1618 16.8724 64.7576 16.2143C65.3696 15.5562 65.6756 14.7135 65.6756 13.6862C65.6756 12.996 65.5387 12.3861 65.2649 11.8564C64.9911 11.3267 64.6046 10.9174 64.1054 10.6284C63.6223 10.3235 63.0505 10.171 62.3903 10.171C61.7461 10.171 61.1744 10.3235 60.6752 10.6284C60.192 10.9174 59.8055 11.3267 59.5156 11.8564C59.2419 12.3861 59.105 12.996 59.105 13.6862C59.105 14.3764 59.2419 14.9864 59.5156 15.516C59.8055 16.0457 60.192 16.4631 60.6752 16.768C61.1744 17.057 61.7461 17.2014 62.3903 17.2014ZM65.5065 19.4646V16.3587L65.9654 13.5417L65.5065 10.7488V7.90777H68.1637V19.4646H65.5065ZM59.8538 6.02977C59.4029 6.02977 59.0245 5.87729 58.7185 5.57231C58.4286 5.26734 58.2837 4.89014 58.2837 4.4407C58.2837 3.99127 58.4286 3.61406 58.7185 3.30909C59.0245 3.00412 59.4029 2.85163 59.8538 2.85163C60.3209 2.85163 60.6993 3.00412 60.9892 3.30909C61.2791 3.61406 61.424 3.99127 61.424 4.4407C61.424 4.89014 61.2791 5.26734 60.9892 5.57231C60.6993 5.87729 60.3209 6.02977 59.8538 6.02977ZM64.9267 6.02977C64.4758 6.02977 64.0973 5.87729 63.7913 5.57231C63.5015 5.26734 63.3565 4.89014 63.3565 4.4407C63.3565 3.99127 63.5015 3.61406 63.7913 3.30909C64.0973 3.00412 64.4758 2.85163 64.9267 2.85163C65.3937 2.85163 65.7722 3.00412 66.0621 3.30909C66.352 3.61406 66.4969 3.99127 66.4969 4.4407C66.4969 4.89014 66.352 5.26734 66.0621 5.57231C65.7722 5.87729 65.3937 6.02977 64.9267 6.02977Z" fill="#1F1E1F"/>
<path d="M78.4804 19.4646L73.5766 13.5658L78.4563 7.90777H81.6208L76.0164 14.2641L76.1372 12.7472L81.8623 19.4646H78.4804ZM71.1127 19.4646V2.12933H73.7699V19.4646H71.1127Z" fill="#1F1E1F"/>
</svg>
