<svg width="235" height="531" viewBox="0 0 235 531" fill="none" xmlns="http://www.w3.org/2000/svg">
<path d="M302.683 365.775C300.982 354.634 275.293 223.641 262.661 159.537C258.774 124.739 251.496 52.7875 253.476 43.3643C255.456 33.9412 254.045 12.8744 253.092 3.51893L238.323 0.0724185C235.025 16.4896 230.272 40.7712 226.124 63.2155C221.108 90.3503 216.976 114.8 217.369 119.42C217.94 126.122 221.931 206.422 225.045 270.026C225.853 286.529 226.601 301.909 227.216 314.587L302.683 365.775Z" fill="#B8D88D"/>
<path d="M131.049 202.426C126.131 196.336 79.966 139.915 57.4981 112.466L27.9772 138.349L11.9705 140.792L169.322 267.842C158.613 248.574 135.966 208.516 131.049 202.426Z" fill="#BBDB8F"/>
<path d="M134.299 167.727L101.502 105.75L76.9022 113.78L134.299 167.727Z" fill="#6E8D82"/>
<path d="M128.914 99.7851L161.355 144.358L139.092 89.3247L128.914 99.7851Z" fill="#6E8D82"/>
<path d="M134.299 167.727L199.669 241.42C196.925 226.625 193.225 206.01 189.521 184.238L161.355 144.358L128.914 99.7851L96.4742 55.2124L96.2685 95.8604L101.502 105.75L134.299 167.727Z" fill="#C2D89A"/>
<path d="M227.216 314.587C226.601 301.909 225.853 286.529 225.045 270.026L199.669 241.42L134.299 167.727L76.9022 113.78L58.6397 96.6154L57.4981 112.466C79.966 139.915 126.131 196.336 131.049 202.426C135.966 208.516 158.613 248.574 169.322 267.842L227.216 314.587Z" fill="#759D55"/>
<path d="M225.045 270.026C221.931 206.422 217.94 126.122 217.369 119.42C216.976 114.8 221.108 90.3503 226.124 63.2155L216.951 14.0228L172.904 10.0567C172.997 12.7558 173.118 16.3872 173.256 20.6916C173.735 35.6047 174.419 58.5957 174.862 78.8774C175.012 85.7327 176.237 97.1963 178.108 111.16C180.933 132.239 185.23 159.015 189.521 184.238C193.225 206.01 196.925 226.625 199.669 241.42L225.045 270.026Z" fill="#7A9E8F"/>
<path d="M178.108 111.16L165.427 91.7185L139.647 48.6233L134.569 40.1349L123.616 51.07L139.092 89.3247L161.355 144.358L189.521 184.238C185.23 159.015 180.933 132.239 178.108 111.16Z" fill="#759D55"/>
<path d="M174.862 78.8774C174.419 58.5957 173.735 35.6047 173.256 20.6916L155.012 23.476L165.427 91.7185L178.108 111.16C176.237 97.1963 175.012 85.7327 174.862 78.8774Z" fill="#B8D88D"/>
<path fill-rule="evenodd" clip-rule="evenodd" d="M375.092 760.89C357.701 766.395 346.698 752.16 343.37 744.354L335.612 693.521C334.337 685.164 319.767 630.145 312.642 603.679C292.071 538.887 248.567 405.958 239.119 392.578L350.422 515.255C359.552 545.215 380.213 648.235 389.402 696C393.091 699.95 401.042 711.61 403.338 726.651C406.207 745.453 396.831 754.009 375.092 760.89Z" fill="#FEFFF1"/>
<path d="M350.422 515.255C339.009 477.805 304.808 379.702 302.683 365.775L227.216 314.587L169.322 267.842L11.9705 140.792L0.835431 142.491L86.5667 204.94C105.011 224.689 143.653 266.344 150.665 274.965C159.432 285.741 227.308 375.854 239.119 392.578L350.422 515.255Z" fill="#F4FDD0"/>
</svg>
